# xmcd
#
# Track frame offsets:
#	150
#	17183
#	34433
#	61021
#	78793
#
# Disc length: 1333 seconds
# Revision: 0
# Processed by: cddbd v1.5.2PL0 Copyright (c) Steve Scherf et al.
# Submitted via: dBpowerAMP V12.0
#
DISCID=33053305
DTITLE=The Jugglers - Blame it on the Bayou
DYEAR=2009
DGENRE=Bluegrass
TTITLE0=Train Train
TTITLE1=Minor Swing
TTITLE2=Hit the Road Jack
TTITLE3=Funky Chicken
TTITLE4=Vigilante Man
EXTD=
EXTT0=
EXTT1=
EXTT2=
EXTT3=
EXTT4=
PLAYORDER=
